HIERARCHY
ROOT Hips
{
 OFFSET 0.000000 0.000000 0.000000
 CHANNELS 6 Xposition Yposition Zposition Yrotation Xrotation Zrotation
 JOINT Chest
 {
  OFFSET 0.000000 9.581000 -0.001100
  CHANNELS 3 Yrotation Xrotation Zrotation
  JOINT Chest2
  {
   OFFSET 0.000000 9.561100 0.002200
   CHANNELS 3 Yrotation Xrotation Zrotation
   JOINT Chest3
   {
    OFFSET 0.000000 9.521100 0.000000
    CHANNELS 3 Yrotation Xrotation Zrotation
    JOINT Chest4
    {
     OFFSET 0.000000 9.511400 0.000000
     CHANNELS 3 Yrotation Xrotation Zrotation
     JOINT Neck
     {
      OFFSET 0.000000 14.375100 0.000000
      CHANNELS 3 Yrotation Xrotation Zrotation
      JOINT Head
      {
       OFFSET 0.000000 8.901200 0.004600
       CHANNELS 3 Yrotation Xrotation Zrotation
       End Site
       {
        OFFSET 0.000000 16.962200 0.002400
       }
      }
     }
     JOINT RightCollar
     {
      OFFSET -2.920100 9.518800 0.000000
      CHANNELS 3 Yrotation Xrotation Zrotation
      JOINT RightShoulder
      {
       OFFSET -13.664500 0.000000 0.000000
       CHANNELS 3 Yrotation Xrotation Zrotation
       JOINT RightElbow
       {
        OFFSET 0.000000 -29.999200 0.000000
        CHANNELS 3 Yrotation Xrotation Zrotation
        JOINT RightWrist
        {
         OFFSET 0.000000 -24.253600 0.000000
         CHANNELS 3 Yrotation Xrotation Zrotation
         End Site
         {
          OFFSET 0.000000 -17.918900 0.000000
         }
        }
       }
      }
     }
     JOINT LeftCollar
     {
      OFFSET 2.920100 9.518800 0.000000
      CHANNELS 3 Yrotation Xrotation Zrotation
      JOINT LeftShoulder
      {
       OFFSET 13.664500 0.000000 0.000000
       CHANNELS 3 Yrotation Xrotation Zrotation
       JOINT LeftElbow
       {
        OFFSET 0.000000 -29.999200 0.000000
        CHANNELS 3 Yrotation Xrotation Zrotation
        JOINT LeftWrist
        {
         OFFSET 0.000000 -24.253600 0.000000
         CHANNELS 3 Yrotation Xrotation Zrotation
         End Site
         {
          OFFSET 0.000000 -17.918900 0.000000
         }
        }
       }
      }
     }
    }
   }
  }
 }
 JOINT RightHip
 {
  OFFSET -7.797300 0.005300 0.000500
  CHANNELS 3 Yrotation Xrotation Zrotation
  JOINT RightKnee
  {
   OFFSET 0.000000 -40.663400 -0.000500
   CHANNELS 3 Yrotation Xrotation Zrotation
   JOINT RightAnkle
   {
    OFFSET 0.000000 -39.523700 -0.000900
    CHANNELS 3 Yrotation Xrotation Zrotation
    JOINT RightToe
    {
     OFFSET 0.000000 -6.418000 14.485300
     CHANNELS 3 Yrotation Xrotation Zrotation
     End Site
     {
      OFFSET 0.000000 -1.465200 6.326400
     }
    }
   }
  }
 }
 JOINT LeftHip
 {
  OFFSET 7.797300 0.005300 0.000500
  CHANNELS 3 Yrotation Xrotation Zrotation
  JOINT LeftKnee
  {
   OFFSET 0.000000 -40.663400 -0.000500
   CHANNELS 3 Yrotation Xrotation Zrotation
   JOINT LeftAnkle
   {
    OFFSET 0.000000 -39.523700 -0.000900
    CHANNELS 3 Yrotation Xrotation Zrotation
    JOINT LeftToe
    {
     OFFSET 0.000000 -6.418000 14.485300
     CHANNELS 3 Yrotation Xrotation Zrotation
     End Site
     {
      OFFSET 0.000000 -1.465200 6.326400
     }
    }
   }
  }
 }
}
MOTION
Frames: 9
Frame Time: 0.008333
-18.411704 126.885242 19.298927 -173.384381 -46.652637 -4.813717 -0.389241 26.655837 1.189126 -0.103766 4.518237 0.209870 -0.152147 7.177053 0.332726 -0.344856 21.831918 0.982538 -4.643957 18.658641 -4.639246 -3.898236 -5.878586 -3.911847 0.302809 1.837257 1.648648 3.314065 -7.363794 -9.028100 -102.230596 -60.676957 149.077512 6.102884 0.117389 -3.338952 -9.871505 -1.205559 -0.509779 -10.094731 -13.544201 12.385361 65.603997 -58.245703 -111.205422 -4.027668 -9.401736 1.512155 -20.559394 -16.940658 0.810870 -5.685536 67.483733 8.688920 13.860321 -10.417101 -4.019895 0.005013 -0.004165 0.002221 14.734092 -7.601880 0.909858 -177.008017 84.845755 177.887623 -12.063565 -14.269443 4.664657 -0.001979 0.002444 -0.000877
-18.411105 126.885609 19.299382 -173.391270 -46.658183 -4.811700 -0.367582 26.668957 1.203834 -0.100750 4.522749 0.211268 -0.164011 7.169554 0.330701 -0.340851 21.833452 0.983962 -4.637451 18.644161 -4.628369 -3.899759 -5.916166 -3.896468 0.300805 1.832077 1.653109 3.309078 -7.359325 -9.026574 -102.182233 -60.666888 149.043149 6.088637 0.115396 -3.335759 -9.879078 -1.209297 -0.505082 -10.091435 -13.544252 12.381333 65.591915 -58.241946 -111.189394 -4.025071 -9.402011 1.515417 -20.557857 -16.932209 0.813316 -5.691309 67.481762 8.680453 13.861710 -10.420439 -4.025598 0.006317 -0.002297 0.002799 14.754092 -7.595772 0.930863 -176.930318 84.848273 177.971594 -12.079390 -14.268926 4.668005 -0.000529 0.001979 -0.000234
-18.410534 126.885633 19.300154 -173.390691 -46.660664 -4.814863 -0.356810 26.675497 1.211723 -0.102080 4.523413 0.211626 -0.159771 7.173442 0.332558 -0.342968 21.830500 0.985622 -4.630424 18.627295 -4.618794 -3.896399 -5.953113 -3.879469 0.299893 1.828702 1.657703 3.302244 -7.360103 -9.028299 -102.169778 -60.665372 149.033607 6.074866 0.117091 -3.335237 -9.875714 -1.196682 -0.491490 -10.085118 -13.549406 12.369986 65.601098 -58.246326 -111.213213 -4.024761 -9.401859 1.517162 -20.562616 -16.928416 0.813054 -5.692576 67.480621 8.674929 13.874767 -10.413442 -4.031624 0.007907 0.000405 0.003503 14.761073 -7.594077 0.942258 -176.899415 84.850113 178.006071 -12.080644 -14.271155 4.661386 0.000029 0.001373 0.000013
-18.411169 126.885825 19.300766 -173.392307 -46.665312 -4.809442 -0.348011 26.682833 1.210729 -0.107966 4.522048 0.212291 -0.150078 7.180831 0.333141 -0.335000 21.833489 0.988078 -4.629051 18.604298 -4.604882 -3.893838 -5.982992 -3.864565 0.293392 1.828057 1.686109 3.292761 -7.362751 -9.046135 -102.167245 -60.666939 149.036711 6.061066 0.119993 -3.337042 -9.890914 -1.203016 -0.480703 -10.057563 -13.521400 12.354117 65.603743 -58.261073 -111.235486 -4.019398 -9.406131 1.527676 -20.567843 -16.924121 0.807814 -5.685936 67.480892 8.680383 13.829090 -10.436827 -4.047290 -0.001014 -0.004816 -0.000449 14.769349 -7.587383 0.947138 -176.877021 84.855164 178.029937 -12.084656 -14.271281 4.656317 0.000640 0.000647 0.000283
-18.410789 126.885872 19.301498 -173.394190 -46.668401 -4.809892 -0.337439 26.687476 1.216187 -0.103777 4.526236 0.213051 -0.147438 7.186357 0.334173 -0.310598 21.849684 0.994936 -4.639206 18.567121 -4.586855 -3.893533 -6.016975 -3.847442 0.262052 1.804374 1.698339 3.285588 -7.341459 -9.029803 -102.176463 -60.675857 149.052161 6.057816 0.119173 -3.332976 -9.923158 -1.226142 -0.464676 -10.051575 -13.511956 12.345881 65.555707 -58.260410 -111.177497 -4.015238 -9.411770 1.548079 -20.567618 -16.920140 0.807473 -5.689179 67.479193 8.676368 13.823419 -10.439231 -4.047803 -0.000438 -0.005216 -0.000194 14.777565 -7.584754 0.957964 -176.809141 84.859398 178.102085 -12.092002 -14.268800 4.652282 0.001041 0.000686 0.000461
-18.410461 126.885814 19.302285 -173.397050 -46.670808 -4.809396 -0.326192 26.691122 1.223504 -0.103777 4.529927 0.209994 -0.131920 7.196810 0.338650 -0.307330 21.849239 0.999537 -4.618185 18.522581 -4.561757 -3.909115 -6.032697 -3.835700 0.239278 1.790329 1.704434 3.279840 -7.329659 -9.023179 -102.155963 -60.674631 149.036667 6.056452 0.121138 -3.328892 -9.937970 -1.227859 -0.445516 -10.055902 -13.522079 12.334823 65.550402 -58.262007 -111.173377 -4.015263 -9.413584 1.552067 -20.571456 -16.916817 0.806671 -5.691200 67.477199 8.668480 13.828015 -10.438046 -4.046012 -0.001102 -0.005322 -0.000488 14.786984 -7.581844 0.969938 -176.897071 84.862317 178.012913 -12.107922 -14.267556 4.652368 0.000130 0.000609 0.000058
-18.410837 126.886263 19.302540 -173.399818 -46.677658 -4.805322 -0.315259 26.699974 1.227511 -0.092588 4.535202 0.213809 -0.146000 7.192953 0.335789 -0.292486 21.857030 1.002624 -4.618536 18.499253 -4.549097 -3.899499 -6.069559 -3.820105 0.219037 1.782759 1.713301 3.275610 -7.321038 -9.019544 -102.138325 -60.668551 149.023179 6.058632 0.133881 -3.321507 -9.954505 -1.234820 -0.429453 -10.048919 -13.512827 12.320326 65.529596 -58.265806 -111.151133 -4.004796 -9.416007 1.551383 -20.578914 -16.908223 0.797661 -5.719845 67.471538 8.636721 13.855009 -10.426158 -4.048815 -0.002398 -0.004008 -0.001063 14.795622 -7.573190 0.975129 -176.904775 84.866425 178.006187 -12.109701 -14.267441 4.645608 0.000014 0.000184 0.000006
-18.410895 126.886493 19.302954 -173.403617 -46.682263 -4.802576 -0.303089 26.706625 1.232015 -0.095502 4.535174 0.214285 -0.144967 7.195597 0.336746 -0.278179 21.861656 1.005693 -4.611092 18.472163 -4.534301 -3.894338 -6.100497 -3.805357 0.201299 1.776193 1.724569 3.267562 -7.310521 -9.013747 -102.130940 -60.667791 149.018115 6.062459 0.145740 -3.310778 -9.972236 -1.242198 -0.417766 -10.036734 -13.500574 12.311490 65.506990 -58.261681 -111.132590 -3.978145 -9.395990 1.559634 -20.580575 -16.901704 0.794533 -5.729331 67.467041 8.625014 13.868594 -10.418475 -4.049544 -0.001380 -0.003401 -0.000611 14.803080 -7.569712 0.983099 -176.881781 84.868704 178.031001 -12.126357 -14.260101 4.651170 -0.000928 -0.000146 -0.000411
-18.410724 126.886328 19.303661 -173.404647 -46.683210 -4.803288 -0.297362 26.708447 1.235361 -0.093661 4.535658 0.214668 -0.129660 7.203810 0.338198 -0.281181 21.859899 1.011582 -4.595087 18.441075 -4.517804 -3.892647 -6.125763 -3.791962 0.183597 1.774485 1.735966 3.260010 -7.300979 -9.008511 -102.090339 -60.668223 148.983232 6.090773 0.139783 -3.296003 -9.985519 -1.247847 -0.408618 -10.020131 -13.486475 12.298537 65.489312 -58.261029 -111.121770 -3.975276 -9.391486 1.553233 -20.584898 -16.897609 0.795767 -5.736818 67.462941 8.615713 13.876605 -10.413126 -4.051764 -0.000938 -0.003279 -0.000415 14.807091 -7.570533 0.988189 -176.870662 84.869224 178.043115 -12.128737 -14.257864 4.649471 -0.001275 -0.000815 -0.000565
